<?xml version="1.0" encoding="UTF-8" standalone="no"?>
<!-- Created with Inkscape (http://www.inkscape.org/) -->

<svg
   width="297mm"
   height="144mm"
   viewBox="0 0 297 144"
   version="1.1"
   id="svg1"
   xml:space="preserve"
   inkscape:version="1.4 (86a8ad7, 2024-10-11)"
   sodipodi:docname="logo.svg"
   xmlns:inkscape="http://www.inkscape.org/namespaces/inkscape"
   xmlns:sodipodi="http://sodipodi.sourceforge.net/DTD/sodipodi-0.dtd"
   xmlns="http://www.w3.org/2000/svg"
   xmlns:svg="http://www.w3.org/2000/svg"><sodipodi:namedview
     id="namedview1"
     pagecolor="#ffffff"
     bordercolor="#000000"
     borderopacity="0.25"
     inkscape:showpageshadow="2"
     inkscape:pageopacity="0.0"
     inkscape:pagecheckerboard="0"
     inkscape:deskcolor="#d1d1d1"
     inkscape:document-units="mm"
     showguides="true"
     inkscape:zoom="0.91801495"
     inkscape:cx="593.67225"
     inkscape:cy="376.35553"
     inkscape:window-width="1920"
     inkscape:window-height="1009"
     inkscape:window-x="-8"
     inkscape:window-y="-8"
     inkscape:window-maximized="1"
     inkscape:current-layer="layer1" /><defs
     id="defs1" /><g
     inkscape:label="Layer 1"
     inkscape:groupmode="layer"
     id="layer1"><path
       style="fill:#0c3449;fill-opacity:1;stroke-width:1.48354"
       d="m 285.54084,101.7797 c -0.68188,-0.57496 -2.70508,-2.693041 -4.49597,-4.706851 -3.78631,-4.25761 -3.01082,-3.33419 -8.44722,-10.05857 -11.28526,-13.958935 -12.95143,-15.861157 -19.22072,-21.943765 -6.31107,-6.123144 -8.43754,-7.656588 -9.56297,-6.896057 -0.855,0.57779 -0.3639,2.697504 1.30429,5.629465 2.14705,3.773614 6.77812,10.879291 9.7619,14.978176 2.80603,3.854691 4.91111,6.800111 6.26338,8.763631 0.90586,1.31536 1.89889,2.75029 2.20673,3.18874 2.09898,2.98959 4.44225,7.34025 4.44225,8.24777 0,0.8941 -0.76116,1.00541 -1.99547,0.29183 -0.89968,-0.52013 -3.58166,-2.92066 -5.213,-4.66594 -3.06201,-3.27587 -4.4569,-4.8542 -6.76587,-7.65562 -3.09903,-3.75998 -5.30299,-5.99981 -8.5522,-8.691362 -2.53391,-2.099015 -6.4113,-6.375833 -9.3732,-10.338805 -1.21585,-1.626764 -2.04951,-2.54367 -2.2035,-2.4235 -0.298,0.23255 -0.1823,1.806462 0.53653,7.298992 0.27733,2.119181 0.60387,4.989042 0.72561,6.37747 0.12168,1.388425 0.36353,3.111415 0.53731,3.828855 0.39758,1.64153 0.3998,2.63594 0.008,3.59252 -1.23222,3.0088 -3.84366,-1.28768 -4.75304,-7.819967 -2.0253,-14.548203 -4.16452,-19.308921 -7.04974,-15.688822 -0.52302,0.656247 -1.59681,2.882114 -2.76404,5.729682 -0.69022,1.683841 -1.89911,4.374336 -2.68645,5.978879 -0.78733,1.604542 -1.63557,3.335871 -1.88496,3.847397 -0.24939,0.511527 -1.33987,3.187471 -2.4233,5.946551 -2.50933,6.39036 -3.94365,8.46741 -4.66766,6.75923 -0.4862,-1.14714 0.13913,-8.45429 1.61038,-18.817523 0.46204,-3.254495 0.53461,-4.431538 0.46717,-7.576868 -0.0712,-3.319827 -0.1341,-3.845626 -0.57963,-4.846642 -0.54981,-1.235234 -0.97013,-1.518801 -1.87803,-1.26701 -1.55642,0.431648 -2.87695,2.807525 -4.65541,8.375961 -1.03907,3.253393 -2.4946,6.388493 -4.12401,8.882828 -1.50729,2.30737 -2.72078,2.905552 -3.54928,1.749588 -0.47509,-0.662879 -0.35607,-2.509225 0.39797,-6.173748 0.64085,-3.114417 1.58449,-10.211385 1.74891,-13.153407 0.11116,-1.989276 0.0871,-2.200106 -0.25106,-2.200106 -0.2057,0 -1.62451,1.183676 -3.15291,2.630391 -2.75453,2.607308 -3.76981,3.377973 -6.00566,4.558688 -2.03247,1.073305 -5.02244,3.724985 -13.15291,11.664728 -1.50469,1.469396 -3.4417,3.358869 -4.30445,4.198829 -0.86277,0.839961 -2.70943,2.673661 -4.10371,4.074891 -2.98733,3.00222 -8.73836,8.45511 -10.53202,9.98601 -2.35809,2.01266 -4.57699,3.18578 -5.48278,2.89871 -1.33903,-0.42435 -0.47053,-1.55202 7.06112,-9.16826 3.91435,-3.95831 5.58426,-5.74042 8.73321,-9.320025 2.27856,-2.590159 5.93417,-7.34567 10.62191,-13.817851 2.69932,-3.726835 5.82358,-8.031627 6.94283,-9.566205 1.11924,-1.53458 4.72063,-6.497048 8.00308,-11.027709 3.28244,-4.530662 6.79793,-9.376591 7.8122,-10.76873 1.01427,-1.39214 2.17529,-3.07883 2.58006,-3.748199 1.50748,-2.492896 3.19069,-2.803329 6.02431,-1.111055 3.17934,1.898753 7.30625,2.863726 11.3641,2.657211 3.24493,-0.165143 4.93979,-0.74371 8.09967,-2.764953 3.33991,-2.136397 4.24882,-2.038046 5.71564,0.618479 0.49929,0.904219 2.79762,4.152782 5.33532,7.541158 0.28936,0.386363 1.42577,1.941839 2.52535,3.456612 1.09958,1.514775 2.2224,3.061337 2.49516,3.436806 3.42029,4.70834 4.20996,5.791767 4.66001,6.393646 0.28937,0.386969 1.47314,2.005545 2.63059,3.596837 1.15746,1.591291 2.24651,3.083147 2.42013,3.315235 0.17362,0.232087 1.22443,1.672062 2.33515,3.199942 2.69309,3.704595 12.34935,16.943323 13.95816,19.136643 4.15562,5.665448 5.65834,7.728438 6.47132,8.884068 0.50082,0.71192 1.62944,2.25905 2.50805,3.43805 4.35502,5.84406 7.37483,10.165461 7.48262,10.707701 0.1526,0.76772 -0.0377,1.40075 -0.42119,1.40075 -0.16407,0 -0.85621,-0.47044 -1.5381,-1.0454 z m -69.6006,-73.907949 c -3.2688,-0.571382 -6.23262,-1.834721 -6.51959,-2.778999 -0.30143,-0.991814 0.63447,-1.838662 2.92832,-2.64972 1.98255,-0.700995 8.56945,-0.852549 11.96441,-0.275282 5.40361,0.918812 6.52553,2.112831 3.68353,3.920285 -2.54333,1.617511 -8.21077,2.455977 -12.05667,1.783716 z"
       id="path1"
       sodipodi:nodetypes="csssssssssssssssscscssssssssscssssssssssssssssssssssssssscsssssssssccssssss" /><path
       style="fill:#0c3449;fill-opacity:1;stroke-width:1.48354"
       d="m 163.39289,83.134729 c -11.33433,-13.903465 -14.89962,-17.50338 -21.1689,-23.585988 -6.31108,-6.123145 -8.43754,-7.656588 -9.56297,-6.896057 -0.85501,0.57779 -0.3639,2.697504 1.30428,5.629465 2.14705,3.773614 6.77813,10.879291 9.76191,14.978176 2.80603,3.85469 4.91111,6.800104 6.26337,8.763634 0.90586,1.31536 1.8989,2.75028 2.20674,3.18874 2.09897,2.98958 4.44225,7.34025 4.44225,8.24777 0,0.89409 -0.76117,1.00541 -1.99548,0.29183 -0.89968,-0.52013 -3.58165,-2.92067 -5.213,-4.66594 -3.062,-3.27587 -4.4569,-4.8542 -6.76587,-7.65563 -3.09902,-3.759977 -5.30299,-5.999807 -8.55219,-8.691355 -2.53392,-2.099015 -6.4113,-6.375833 -9.37321,-10.338805 -1.21585,-1.626764 -2.04951,-2.543671 -2.2035,-2.4235 -0.29799,0.23255 -0.1823,1.806461 0.53653,7.298992 0.27733,2.119181 0.60387,4.989042 0.72562,6.37747 0.12167,1.388428 0.36353,3.111414 0.5373,3.828856 0.39758,1.641529 0.39981,2.635932 0.008,3.592512 -1.23223,3.00881 -3.84367,-1.28767 -4.75304,-7.81996 -2.0253,-14.548203 -4.16452,-19.308921 -7.04975,-15.688822 -0.52302,0.656247 -1.5968,2.882114 -2.76403,5.729682 -0.69022,1.683841 -1.89912,4.374336 -2.68646,5.978878 -0.78733,1.604543 -1.63556,3.335871 -1.88495,3.847398 -0.2494,0.511527 -1.33988,3.187469 -2.4233,5.946546 -6.690325,17.037828 -4.956734,1.321068 -3.057284,-12.058288 0.462034,-3.254496 0.534604,-4.431538 0.467174,-7.576868 -0.0712,-3.319827 -0.13411,-3.845627 -0.579634,-4.846643 -0.54982,-1.235233 -0.97013,-1.5188 -1.87803,-1.267009 -1.556427,0.431648 -2.876952,2.807525 -4.655413,8.375961 -1.039068,3.253393 -2.494599,6.388493 -4.124016,8.882828 -1.507288,2.30737 -2.720775,2.905552 -3.549276,1.749588 -0.47509,-0.662879 -0.356075,-2.509225 0.397972,-6.173748 0.64085,-3.114418 1.584488,-10.211385 1.74891,-13.153407 0.111162,-1.989276 0.08713,-2.200106 -0.251058,-2.200106 -0.205705,0 -1.624514,1.183676 -3.152915,2.63039 -2.754533,2.607309 -3.769812,3.377973 -6.005665,4.558689 -0.77568,0.409622 -3.88899,2.178289 -21.56108,19.938448 -2.987316,3.002223 -8.73835,8.455103 -10.532011,9.986003 -2.358085,2.01266 -4.576977,3.18578 -5.482773,2.89872 -1.339029,-0.42436 -0.470528,-1.55203 7.061115,-9.16826 3.914356,-3.958312 5.584263,-5.74042 8.733206,-9.320028 2.278565,-2.590159 5.934183,-7.34567 10.621904,-13.817851 2.699334,-3.726835 5.823599,-8.031627 6.942843,-9.566205 1.119244,-1.53458 4.720632,-6.497048 8.003078,-11.027709 3.282445,-4.530662 6.797935,-9.376591 7.812203,-10.76873 1.014269,-1.39214 2.175287,-3.07883 2.580061,-3.748199 1.507479,-2.492896 3.190688,-2.803329 6.024305,-1.111055 3.179344,1.898753 7.306254,2.863726 11.364104,2.657211 3.24493,-0.165143 4.93979,-0.74371 8.09967,-2.764953 3.33991,-2.136398 4.24882,-2.038047 5.71565,0.618479 0.49928,0.904219 2.79761,4.152782 5.33531,7.541158 0.28937,0.386363 1.42578,1.941839 2.52536,3.456612 1.09958,1.514775 2.2224,3.061337 2.49515,3.436805 3.4203,4.708341 4.20996,5.791768 4.66002,6.393647 0.28936,0.386969 1.47313,2.005545 2.63059,3.596836 1.15745,1.591292 2.2465,3.083148 2.42013,3.315236 0.17361,0.232087 1.22442,1.672061 2.33514,3.199942 2.6931,3.704595 12.34935,16.943323 13.95816,19.136643 4.15562,5.665445 6.38929,12.189381 6.47132,10.690511 0.31878,-5.824727 2.03,5.69717 -2.96377,-0.42854 z m -58.6056,-60.784751 c -3.2688,-0.571382 -6.232624,-1.834721 -6.519594,-2.779 -0.30142,-0.991813 0.63447,-1.838661 2.928324,-2.64972 1.98256,-0.700994 8.56945,-0.852548 11.96441,-0.275281 5.40361,0.918811 6.52553,2.112831 3.68353,3.920285 -2.54332,1.617511 -8.21076,2.455976 -12.05667,1.783716 z"
       id="path1-7"
       sodipodi:nodetypes="ssssssssssssssscscsssssssscssssssssssssssssssssssssscsssssssssssss" /><path
       style="fill:#0c3449;fill-opacity:1;stroke-width:1.17251"
       d="m 72.646549,58.207734 c -0.150716,4.372969 -4.908446,8.231589 -5.506816,3.912349 -0.003,-1.452505 -2.135954,2.428495 -2.776722,3.660044 -1.349755,2.388 -4.79401,4.947611 -5.867739,7.517237 -2.042176,4.904859 -3.209472,6.499074 -3.798689,5.187981 -0.39569,-0.880475 0.113224,-6.489 1.310579,-14.443193 0.376017,-2.497953 0.435076,-3.401378 0.380196,-5.815543 -0.0579,-2.548097 -0.109142,-2.951669 -0.47172,-3.719989 -0.447458,-0.94809 -0.789523,-1.165739 -1.528401,-0.972479 -1.266666,0.331307 -2.341351,2.154885 -3.78872,6.42888 -0.845626,2.497107 -2.030184,4.903418 -3.356255,6.817919 -1.22668,1.770998 -2.214254,2.230126 -2.888514,1.342877 -0.386643,-0.508785 -0.289785,-1.925927 0.323883,-4.738594 0.521544,-2.390438 1.289506,-7.83764 1.423318,-10.095757 0.09047,-1.526848 0.0709,-1.688668 -0.204319,-1.688668 -0.16741,0 -1.322081,0.908519 -2.565942,2.018928 -2.241727,2.001212 -3.067993,2.592727 -4.887601,3.498973 -1.654089,0.823805 -4.087418,2.859073 -10.70425,8.953137 -1.224567,1.127819 -2.800968,2.578064 -3.503102,3.222766 -0.702146,0.644702 -2.205029,2.052141 -3.339741,3.127639 -2.431174,2.304323 -7.111544,6.489629 -8.571287,7.664658 -1.919085,1.54479 -3.7248895,2.44521 -4.4620545,2.22487 -1.0897439,-0.3257 -0.382931,-1.19124 5.7465635,-7.036996 3.185624,-3.038159 4.544647,-4.405997 7.107355,-7.153487 1.854373,-1.98805 4.829431,-5.638091 8.644447,-10.605746 2.196804,-2.860491 4.739429,-6.164589 5.650307,-7.342437 0.910876,-1.177852 3.841799,-4.986741 6.513159,-8.464201 2.671358,-3.477461 5.532375,-7.196902 6.357818,-8.265424 0.825444,-1.068522 1.770319,-2.363123 2.099735,-2.87689 1.226835,-1.913395 2.596684,-2.151664 4.902771,-0.852778 2.587448,1.457367 5.94606,2.198023 9.24847,2.039513 2.64083,-0.126754 4.020159,-0.570826 6.591766,-2.122209 2.718125,-1.639769 3.457819,-1.564282 4.651572,0.474706 0.40633,0.694024 2.276795,3.187424 4.342053,5.788136 0.235489,0.296549 1.160336,1.490438 2.055207,2.653085 0.894871,1.162649 1.808656,2.349697 2.030639,2.637884 C 83.258892,53.590964 79.03472,51.794276 72.646549,58.207734 Z M 60.126728,29.763574 c -2.660255,-0.438559 -5.072303,-1.408221 -5.305851,-2.132991 -0.245307,-0.761256 0.516354,-1.411246 2.383162,-2.033765 1.613468,-0.538041 6.974086,-0.654363 9.737018,-0.211289 4.397633,0.705223 5.310681,1.62168 2.997765,3.008972 -2.069832,1.241504 -6.682171,1.885059 -9.812094,1.369073 z"
       id="path1-7-2"
       sodipodi:nodetypes="ssssssscssssssssssssssssssssssssssscsssssss" /><path
       style="fill:#1382e0;fill-opacity:1;stroke-width:0.407986"
       d="m 52.505058,75.45656 c 3.431376,-0.527 7.496995,-1.52705 11.055755,-0.92898 9.627717,0.77927 18.632892,-0.816652 28.171453,0.514748 10.892434,1.708904 19.869084,-0.249452 31.042944,-0.176282 4.25624,-0.58116 11.67466,1.626846 15.92699,0.912226 4.99386,-1.454797 8.02004,0.19293 13.15347,-0.30496 2.81633,-0.18097 7.42155,0.83242 10.2337,0.57643 6.57946,-0.598925 -0.798,1.26478 5.22549,1.26478 3.91979,0 6.89504,-1.15661 10.63053,-2.322452 2.14211,-0.66856 3.61449,-0.50322 5.95309,-0.92899 3.43279,-0.62496 3.58609,-1.14242 6.80355,-1.39347 3.4919,-0.27245 6.37779,0.89794 9.78009,1.39347 5.49303,0.80005 -0.57622,-1.07423 5.52788,0.4645 2.65878,0.67022 5.43556,1.552372 8.07922,2.322452 4.3356,1.26294 3.59302,1.33449 9.35485,2.78694 17.94265,2.941677 3.72874,0.692027 21.26108,3.715917 6.42085,1.10745 17.25519,1.2632 22.53673,5.1094 1.77728,1.29427 0.72046,2.64494 1.27567,3.25143 0.50112,0.54741 1.19976,0.84607 1.70089,1.39347 2.20713,2.41098 0.2037,7.135151 -1.27567,9.289811 -1.51713,2.20965 -4.82863,1.29033 -5.52788,5.1094 -0.86138,4.70461 -0.58154,9.75939 -2.1261,14.3992 -1.70903,5.13386 -0.63816,0.9297 -2.12611,4.18041 -0.4009,0.87585 -0.21657,2.09453 -0.85045,2.78695 -0.977,1.06723 -4.41937,1.09075 -5.52787,1.39348 -3.97509,1.08554 -7.85361,2.83054 -11.90621,3.71592 -5.49597,1.20069 -12.28933,2.32598 -17.8593,1.85796 -4.97743,-0.41825 -9.92659,-1.72092 -14.88275,-2.32246 -0.93699,-0.11378 -11.61718,-0.87324 -12.33142,-0.92897 -1.84338,-0.14376 -3.72199,-0.0356 -5.52787,-0.46449 -1.27396,-0.30254 -6.33762,-2.83105 -7.65398,-3.71593 -3.30403,-2.22101 -6.33318,-5.88683 -10.63055,-5.57388 -5.0188,0.36548 -10.15576,3.9414 -15.30796,4.64489 -2.72788,0.37248 -6.35653,0.15214 -8.92965,-0.92897 -0.7714,-0.3241 -1.4174,-0.92899 -2.12612,-1.39347 -1.13391,-0.46449 -2.25288,-0.97515 -3.40177,-1.39348 -4.83389,-1.7601 -1.08703,-0.25444 -5.9531,-1.39346 -3.25377,-0.76164 -6.43036,-1.57651 -9.78009,-1.85796 -5.49349,-0.4616 -11.08043,0.31638 -16.58363,0 -4.30798,-0.24768 -8.53676,-1.44444 -12.756644,-2.32247 -5.899613,-1.22751 -12.707184,-2.34981 -18.70975,-2.78693 -4.673911,-0.34038 -9.364408,-0.0396 -14.032308,-0.46449 -1.853974,-0.16877 -3.692232,-0.70618 -5.527879,-0.92899 -2.047269,-0.24848 -4.36638,-0.025 -6.378321,-0.46448 -4.170761,-0.91118 -7.705241,-6.38537 -11.055756,-8.82532 -2.120848,-1.54447 -5.37864,-2.57088 -6.378325,-5.573891 -0.764983,-2.29799 0.587249,-5.36387 1.275664,-7.43185 C 39.81279,78.506112 47.906827,77.426872 52.505058,75.45656"
       id="path2"
       sodipodi:nodetypes="cssssssssssssssssssssssssssscssssscsssssssscsssc" /></g></svg>
